# xmcd CD database file
#
# Track frame offsets:
#	150
#	21051
#	42332
#	61526
#	83095
#	101691
#	122286
#	138981
#	161232
#	186633
#	206569
#
# Disc length: 2897 seconds
#
# Revision: 2
# Processed by: cddbd v1.5.1PL2 Copyright (c) Steve Scherf et al.
# Submitted via: CDex 1.51
#
DISCID=8f0b4f0b
DTITLE=Les Haricots Rouges - Rencontres
DYEAR=2003
DGENRE=Jazz
TTITLE0=Jumping Jazz Festival - Eh la bas (featuring Kid Thomas Valentine - Fontainebleau 1983)
TTITLE1=Jumping Jazz Festival - Milk cow blues (featuring Kid Thomas Valentine - Fontainebleau 1983)
TTITLE2=Jumping Jazz Festival - Them there eyes (featuring Benny Watres - Fontainebleau 1983)
TTITLE3=Jumping Jazz Festival - Creole love call (featuring Claude Luter - Fontainebleau 1981)
TTITLE4=Grande Parade du Jazz - Marie Laveau (featuring Emmanuel Sayles - Nice 1974)
TTITLE5=Caveau de la Huchette - Bugle boy march (featuring Louis Nelson - Live Paris 1975)
TTITLE6=Caveau de la Huchette - Marie (featuring Louis Nelson - Live Paris 1975)
TTITLE7=Caveau de la Huchette - Until the real things come along (featuring Alton Purnell - Live Paris 1973)
TTITLE8=Mississippi Dream - Lover come back to me (featuring P.Artero, P.L.Cas, P.Jean - Boisset et Gaujac 1998)
TTITLE9=Mississippi Dream - Woopin' blues (featuring Mississippi Brass Band - Anduze 1998)
TTITLE10=Mississippi Dream - Blues in the backstage (featuring Anette Lowman - Boisset et Gaujac 1996)
EXTD=YEAR: 2003
EXTT0=
EXTT1=
EXTT2=
EXTT3=
EXTT4=
EXTT5=
EXTT6=
EXTT7=
EXTT8=
EXTT9=
EXTT10=
PLAYORDER=
